<?xml version="1.0" standalone="no"?>
<!DOCTYPE svg PUBLIC "-//W3C//DTD SVG 20010904//EN"
 "http://www.w3.org/TR/2001/REC-SVG-20010904/DTD/svg10.dtd">
<svg version="1.0" xmlns="http://www.w3.org/2000/svg"
 width="512.000000pt" height="512.000000pt" viewBox="0 0 512.000000 512.000000"
 preserveAspectRatio="xMidYMid meet">

<g transform="translate(0.000000,512.000000) scale(0.100000,-0.100000)"
fill="#000000" stroke="none">
<path d="M2050 4667 c-161 -49 -294 -152 -377 -295 -15 -25 -48 -106 -74 -181
l-47 -136 -383 -5 c-419 -5 -412 -4 -471 -67 -98 -103 -67 -267 64 -334 36
-18 85 -19 1795 -19 1690 0 1760 1 1798 19 132 61 166 230 67 334 -59 63 -52
62 -471 67 l-383 5 -48 137 c-26 76 -62 163 -81 194 -72 120 -211 230 -349
277 -63 21 -81 22 -515 24 -442 2 -451 2 -525 -20z m888 -407 c63 -14 118 -60
148 -124 44 -95 97 -86 -526 -86 -623 0 -570 -9 -526 86 28 60 85 110 141 123
57 13 703 13 763 1z"/>
<path d="M1179 3387 c-24 -13 -57 -43 -74 -66 l-30 -43 0 -1176 0 -1177 26
-67 c74 -190 207 -323 397 -397 l67 -26 985 0 985 0 70 22 c195 62 356 223
418 418 l22 70 0 1166 0 1165 -25 37 c-14 21 -43 50 -64 65 l-39 27 -1347 3
-1346 2 -45 -23z m1459 -843 c49 -20 90 -60 113 -109 17 -37 19 -74 19 -515 0
-441 -2 -478 -19 -515 -76 -164 -298 -166 -382 -3 -18 35 -19 65 -19 518 0
453 1 483 19 518 53 102 169 148 269 106z"/>
</g>
</svg>
